<?xml version="1.0" encoding="UTF-8"?>
<svg version="1.1" xmlns="http://www.w3.org/2000/svg" width="1024" height="1024">
<path d="M0 0 C337.92 0 675.84 0 1024 0 C1024 337.92 1024 675.84 1024 1024 C686.08 1024 348.16 1024 0 1024 C0 686.08 0 348.16 0 0 Z " fill="#FEFEFE" transform="translate(0,0)"/>
<path d="M0 0 C45.87 0 91.74 0 139 0 C139.11017395 55.69648907 139.20251518 111.3928756 139.25532665 167.08944241 C139.26158038 173.6610282 139.26805197 180.23261377 139.2746582 186.80419922 C139.27662553 188.76667233 139.27662553 188.76667233 139.2786326 190.76879136 C139.30040464 211.96851414 139.33983609 233.1681693 139.38576398 254.36785193 C139.43247854 276.11157529 139.46028481 297.85526318 139.47044247 319.59903467 C139.47731199 333.02220784 139.49902901 346.44518993 139.53958233 359.8683043 C139.56595895 369.06601098 139.57401251 378.26361851 139.56750689 387.46136029 C139.5642961 392.77248363 139.56930787 398.08327245 139.59602737 403.3943367 C139.62029823 408.25403959 139.62162769 413.11318192 139.60449447 417.97291021 C139.6023759 419.73344725 139.60877069 421.49401879 139.62441591 423.25448759 C139.64442222 425.64411592 139.63370852 428.03170895 139.61523914 430.4213047 C139.62837421 431.10824592 139.64150928 431.79518715 139.65504238 432.50294477 C139.55864986 438.00454087 137.71987078 440.24458491 134 444 C130.98873448 446.04590712 128.60003922 446.25224059 124.9969635 446.26069641 C123.48500648 446.27132362 123.48500648 446.27132362 121.94250488 446.28216553 C120.29272644 446.2784494 120.29272644 446.2784494 118.60961914 446.2746582 C116.86514748 446.2823246 116.86514748 446.2823246 115.08543396 446.29014587 C111.23528926 446.30406317 107.38532313 446.3030835 103.53515625 446.30078125 C101.53778484 446.30368505 99.54041336 446.30659332 97.54304308 446.310188 C91.26313351 446.32127958 84.98328376 446.32172256 78.70336914 446.31567383 C72.22881201 446.30963343 65.75447217 446.32194736 59.27995211 446.3432439 C53.71719258 446.36086734 48.15450217 446.3668601 42.59171575 446.36360615 C39.27104121 446.36179432 35.95055616 446.36573403 32.62989998 446.37832069 C28.92635406 446.39063569 25.22331302 446.38392258 21.51977539 446.37231445 C20.42194733 446.37995819 19.32411926 446.38760193 18.19302368 446.39547729 C8.91790767 446.33111329 8.91790767 446.33111329 5 443 C0.52130696 438.0236744 -0.14778933 434.3358829 -0.12304783 427.8373003 C-0.12420167 427.09939621 -0.12535552 426.36149213 -0.12654433 425.60122731 C-0.12920778 423.10911401 -0.12469103 420.61706429 -0.12025452 418.12495422 C-0.12069027 416.32807674 -0.12156526 414.53119933 -0.12284368 412.73432225 C-0.12508776 407.78140763 -0.12106853 402.82851449 -0.11606562 397.8756026 C-0.11176007 392.54022716 -0.11320762 387.204853 -0.1139679 381.86947632 C-0.11449306 372.62050907 -0.111347 363.37154886 -0.10573006 354.12258339 C-0.0976141 340.75001689 -0.09499974 327.3774538 -0.09374207 314.0048851 C-0.0915517 292.31046509 -0.08489202 270.61604883 -0.07543945 248.92163086 C-0.06626495 227.84350605 -0.0591843 206.76538226 -0.05493164 185.68725586 C-0.05466892 184.38870095 -0.05440619 183.09014605 -0.05413551 181.75224099 C-0.0528305 175.23798191 -0.05156679 168.72372281 -0.05032361 162.20946372 C-0.03995146 108.13963914 -0.02151341 54.06982151 0 0 Z " fill="#3A3A38" transform="translate(335,383)"/>
<path d="M0 0 C1.34039706 0.00171497 2.68079746 0.0016415 4.02119446 -0.00012207 C6.81434732 0.00152167 9.6066883 0.02004822 12.3996582 0.05175781 C15.96725199 0.09154966 19.53379154 0.09578397 23.10156536 0.08829498 C25.86326134 0.085217 28.62472327 0.09737306 31.38636208 0.11442566 C33.33719649 0.12479898 35.28807541 0.12530219 37.23893738 0.12561035 C39.02658257 0.14947815 39.02658257 0.14947815 40.8503418 0.17382812 C41.89353073 0.18224731 42.93671967 0.1906665 44.01152039 0.19934082 C49.49486169 0.92586211 54.06438725 3.77590719 57.98828125 7.59375 C60.58300104 12.63515486 61.42046466 16.73620526 61.3490448 22.42088318 C61.35160807 23.17823779 61.35417135 23.9355924 61.3568123 24.71589714 C61.36172814 27.23717011 61.34529417 29.75783554 61.32885742 32.27905273 C61.32801067 34.09286993 61.32848723 35.90668816 61.33018494 37.72050476 C61.33104444 42.63324724 61.31342583 47.54576925 61.29246306 52.45846057 C61.27368889 57.59673105 61.27194523 62.73500678 61.26838684 67.87330627 C61.25906857 77.59834643 61.23445768 87.32328522 61.20433837 97.04828078 C61.16451222 110.19323179 61.14833773 123.3382106 61.13083172 136.48320675 C61.10263648 157.18679707 61.04286543 177.8901735 60.98828125 198.59375 C31.61828125 198.59375 2.24828125 198.59375 -28.01171875 198.59375 C-28.21323392 152.52290377 -28.21323392 152.52290377 -28.25585938 133.22265625 C-28.285532 119.89427069 -28.32042198 106.56604312 -28.38891602 93.23779297 C-28.4387753 83.53104566 -28.47101559 73.82442648 -28.48216122 64.11755466 C-28.48867566 58.97848714 -28.50397001 53.83978615 -28.54036903 48.70083618 C-28.57436824 43.86138075 -28.58476372 39.02244201 -28.57725716 34.18287849 C-28.57862994 32.40917208 -28.58853907 30.63544796 -28.60774612 28.86184502 C-28.77628396 12.49255535 -28.77628396 12.49255535 -24.34669209 6.93482971 C-17.33783338 -0.10608861 -9.51645138 -0.12294835 0 0 Z " fill="#3A3A37" transform="translate(656.01171875,195.40625)"/>
<path d="M0 0 C9.73686273 0.67739761 19.47100456 1.38491525 29.19799805 2.19238281 C30.70316601 2.31511972 32.20871929 2.43321147 33.71459961 2.546875 C35.93451854 2.71511947 38.15268314 2.898965 40.37109375 3.0859375 C41.66974365 3.1895459 42.96839355 3.2931543 44.30639648 3.39990234 C50.57866465 4.41895417 55.09833601 6.35554077 59.0625 11.5 C59.81660156 12.47066406 60.57070313 13.44132813 61.34765625 14.44140625 C62.23449034 15.62557237 63.11832978 16.81198412 64 18 C64.53608887 18.71913574 65.07217773 19.43827148 65.62451172 20.17919922 C69.2367762 25.03560958 72.81666843 29.91520783 76.38867188 34.80126953 C80.76393398 40.77151355 85.21016154 46.68867927 89.734375 52.546875 C90.19489258 53.14322754 90.65541016 53.73958008 91.12988281 54.35400391 C92.02323634 55.50874134 92.91833704 56.66212985 93.81542969 57.81396484 C96.60742115 61.41664298 98.11911512 63.45187117 98.15390015 68.00325012 C98.16250061 68.84018906 98.17110107 69.67712799 98.17996216 70.53942871 C98.18635208 71.91947083 98.18635208 71.91947083 98.19287109 73.32739258 C98.20513733 74.77881905 98.20513733 74.77881905 98.21765137 76.25956726 C98.24252472 79.47121557 98.2590257 82.68281965 98.2734375 85.89453125 C98.27876118 86.98971258 98.28408485 88.08489391 98.28956985 89.21326256 C98.31630891 95.00911129 98.33568207 100.80493841 98.35009766 106.60083008 C98.36675416 112.59341385 98.41153866 118.58544859 98.4624691 124.57782459 C98.4960902 129.18031969 98.50766945 133.78268362 98.51332474 138.38529015 C98.52005059 140.59453214 98.53530704 142.8037651 98.55921555 145.01288795 C98.59076115 148.103858 98.59091956 151.19333571 98.58349609 154.28442383 C98.59990143 155.19837921 98.61630676 156.11233459 98.63320923 157.0539856 C98.58880578 161.56666122 98.47728343 163.39738127 95.58853149 167.04472351 C91.76116241 169.93576996 89.85650926 170.13304536 85.09423828 170.17408752 C83.20598579 170.19349144 83.20598579 170.19349144 81.27958679 170.21328735 C79.87649638 170.22250788 78.4734049 170.23156611 77.0703125 170.24047852 C75.59857406 170.25328829 74.12683843 170.26642373 72.65510559 170.27986145 C59.2004522 170.39591542 45.74505403 170.45243162 32.28999329 170.49662876 C22.34783631 170.52983614 12.40659335 170.58932093 2.46482849 170.68413979 C-4.52892842 170.74857972 -11.52243712 170.78218248 -18.51647949 170.79337829 C-22.6912113 170.80092333 -26.86483982 170.82196892 -31.03924561 170.87640572 C-34.97292914 170.92709467 -38.90493326 170.9393766 -42.83889198 170.92315483 C-44.27639402 170.92375531 -45.71396951 170.93787611 -47.15117455 170.96710205 C-55.94698885 171.13649522 -61.32952972 170.19907959 -67.94798279 164.20579433 C-72.94762401 158.83148255 -74.58609696 155.74183065 -74.45410156 148.35424805 C-74.45497772 147.06568153 -74.45497772 147.06568153 -74.45587158 145.75108337 C-74.4530921 142.92087945 -74.42200683 140.09173794 -74.390625 137.26171875 C-74.38316212 135.29588903 -74.37746941 133.33005186 -74.37347412 131.36421204 C-74.35822153 126.19700483 -74.31894275 121.0302493 -74.2746582 115.86322021 C-74.23369754 110.58791209 -74.21546139 105.31253078 -74.1953125 100.03710938 C-74.1524483 89.6912081 -74.08420133 79.34564165 -74 69 C-73.67 69 -73.34 69 -73 69 C-72.76925781 70.09699219 -72.53851563 71.19398438 -72.30078125 72.32421875 C-71.97231325 73.77886273 -71.64283235 75.23327826 -71.3125 76.6875 C-71.16361328 77.40873047 -71.01472656 78.12996094 -70.86132812 78.87304688 C-69.70028443 83.8587051 -68.22913739 86.80024209 -64 90 C-59.39995821 91.17370321 -55.19551673 90.56116091 -50.9375 88.5625 C-47.57160371 85.6262926 -44.43941472 82.51982909 -41.31640625 79.328125 C-38.05333925 76.04855007 -34.71379636 72.76976179 -31 70 C-30.34 70 -29.68 70 -29 70 C-27.24811768 72.34192602 -25.61221067 74.68910882 -24 77.125 C-22.99978847 78.60880863 -21.99846606 80.09186896 -20.99609375 81.57421875 C-20.49190918 82.3223584 -19.98772461 83.07049805 -19.46826172 83.84130859 C-16.99234651 87.48148855 -14.42337572 91.05297941 -11.84619141 94.62182617 C-9.51650441 97.85505766 -7.23151197 101.11228402 -4.98828125 104.40625 C4.24515121 117.90874784 10.94644752 125.20281018 27.5 128.75 C39.95628265 129.93263586 39.95628265 129.93263586 51 125 C57.82819878 118.44482207 57.82819878 118.44482207 60.16796875 109.59375 C60.32113832 96.03491311 59.60574079 83.45858693 50 73 C46.69108112 70.40416357 43.22795918 68.04990919 39.75 65.6875 C38.2494104 64.65592773 38.2494104 64.65592773 36.71850586 63.60351562 C25.55584868 55.95546167 14.28845434 48.46066526 3 41 C4.2852421 38.12828118 5.55332018 36.24533382 7.93359375 34.1953125 C8.50013672 33.69386719 9.06667969 33.19242188 9.65039062 32.67578125 C10.83570396 31.64721427 12.02318684 30.62114179 13.21289062 29.59765625 C17.36816764 25.90931729 20.64116947 22.41449674 21.25 16.62109375 C21.1675 15.90050781 21.085 15.17992187 21 14.4375 C20.938125 13.71433594 20.87625 12.99117187 20.8125 12.24609375 C19.58356508 8.8487977 17.79745122 7.2633584 15 5 C12.45378134 3.91938124 9.88352736 3.28346394 7.1875 2.6875 C6.49462891 2.51927734 5.80175781 2.35105469 5.08789062 2.17773438 C3.39568286 1.76927043 1.69829134 1.38238258 0 1 C0 0.67 0 0.34 0 0 Z " fill="#3B3A38" transform="translate(386,206)"/>
<path d="M0 0 C0.66 0 1.32 0 2 0 C2.10343258 6.69948758 2.17229212 13.39876183 2.21972656 20.09887695 C2.23954962 22.3668588 2.26661617 24.63479167 2.30175781 26.90258789 C2.54056521 42.73762545 1.26271099 57.50317135 -2 73 C-2.26882179 74.34921629 -2.53624572 75.69871248 -2.80175781 77.04858398 C-4.30439809 84.46772608 -6.83005043 91.15076436 -10 98 C-10.38220703 98.83917969 -10.76441406 99.67835938 -11.15820312 100.54296875 C-16.11854882 111.39138693 -21.19579683 121.83099009 -27.86328125 131.73046875 C-30.22156761 135.3390349 -32.33266919 139.01899026 -34.375 142.8125 C-35.00148438 143.97394531 -35.62796875 145.13539063 -36.2734375 146.33203125 C-39.90517112 153.72513091 -41.51269304 160.38771629 -41.375 168.625 C-41.36774902 169.48947754 -41.36049805 170.35395508 -41.35302734 171.24462891 C-41.16380579 180.16107758 -39.82205094 188.71605228 -36.90625 197.171875 C-35.82366992 200.55027145 -35.85898562 203.47464054 -36 207 C-37.78051758 207.64086914 -37.78051758 207.64086914 -40 208 C-41.74487305 207.14233398 -41.74487305 207.14233398 -43.51171875 205.74609375 C-44.51259521 204.96903076 -44.51259521 204.96903076 -45.53369141 204.17626953 C-46.24444824 203.60247559 -46.95520508 203.02868164 -47.6875 202.4375 C-48.42919434 201.85339355 -49.17088867 201.26928711 -49.93505859 200.66748047 C-52.30260755 198.79348246 -54.6526307 196.89919573 -57 195 C-57.77327637 194.37915527 -58.54655273 193.75831055 -59.34326172 193.11865234 C-61.61045228 191.29540732 -63.86989628 189.46316855 -66.125 187.625 C-66.81037842 187.0673999 -67.49575684 186.5097998 -68.2019043 185.93530273 C-79.83652994 176.32694013 -79.83652994 176.32694013 -82 172 C-85.11286794 130.46544779 -59.63684243 91.93464033 -36.71484375 59.44995117 C-33.78360819 55.26217371 -30.95502265 51.00656076 -28.125 46.75 C-27.21427734 45.38137817 -27.21427734 45.38137817 -26.28515625 43.98510742 C-16.78906873 29.68679199 -7.49665935 15.47182887 0 0 Z " fill="#3C3C39" transform="translate(710,622)"/>
<path d="M0 0 C29.37 0 58.74 0 89 0 C89 35.67841352 85.19112589 59.85640914 69.5 89.8125 C69.15678711 90.46919678 68.81357422 91.12589355 68.45996094 91.80249023 C63.25402996 101.52079094 56.97953962 110.60680775 50.75 119.6875 C50.09668701 120.64374268 49.44337402 121.59998535 48.77026367 122.58520508 C45.86265113 126.83780659 42.94694607 131.08432944 40.00390625 135.3125 C28.8766608 151.30952833 18.80506831 167.60414601 10 185 C9.67 185 9.34 185 9 185 C8.30125581 154.30837659 19.22170546 126.04446402 35.2578125 100.3671875 C45.85617873 83.33467504 55.17384666 64.87260637 55.5 44.5 C55.51877197 43.65050781 55.53754395 42.80101562 55.55688477 41.92578125 C55.5000215 36.4755724 54.60693102 33.32560525 51 29 C48.10036654 26.72171657 44.85447597 26.45154604 41.19921875 26.56640625 C26.44925907 29.47448001 12.9981867 49.08454538 4.875 60.8125 C4.06675781 62.02873047 4.06675781 62.02873047 3.2421875 63.26953125 C2.83226562 63.84058594 2.42234375 64.41164063 2 65 C1.67 65 1.34 65 1 65 C0.04319119 57.311491 -0.13250899 49.73388745 -0.09765625 41.9921875 C-0.09664917 40.92105713 -0.09564209 39.84992676 -0.09460449 38.74633789 C-0.08941804 34.78921419 -0.0754572 30.83210589 -0.0625 26.875 C-0.041875 18.00625 -0.02125 9.1375 0 0 Z " fill="#3B3B38" transform="translate(628,402)"/>
<path d="M0 0 C0.33 0 0.66 0 1 0 C2.00876784 42.83900771 -7.52236876 76.3418076 -30.43896484 112.53417969 C-33.68102008 117.65534921 -36.83392818 122.83164075 -40 128 C-40.81597656 129.30517578 -40.81597656 129.30517578 -41.6484375 130.63671875 C-53.72925485 150.51618579 -61.69364305 171.44057184 -67 194 C-69 193 -69 193 -70.21875 189.640625 C-70.65719203 188.18044591 -71.08351002 186.71659145 -71.5 185.25 C-71.72067139 184.47793213 -71.94134277 183.70586426 -72.16870117 182.91040039 C-81.88130556 147.94864193 -71.51132721 116.14768779 -54.54052734 85.3515625 C-48.68332377 75.05418993 -42.26329971 65.26088894 -35.25195312 55.72167969 C-24.3987843 40.7964561 -14.27865865 25.23583619 -4.75 9.4375 C-4.3792334 8.82447021 -4.0084668 8.21144043 -3.62646484 7.57983398 C-2.13011983 5.06593127 -0.92898068 2.78694204 0 0 Z " fill="#3B3B37" transform="translate(705,492)"/>
<path d="M0 0 C1.05227783 0.26997803 2.10455566 0.53995605 3.1887207 0.81811523 C10.85804979 2.80590482 18.47266991 4.96551681 26.07568359 7.19165039 C32.21826299 8.97240386 38.39343688 10.50197446 44.625 11.9375 C51.15049034 13.44740031 57.59902467 15.08569587 64 17.0625 C64.66555908 17.26496338 65.33111816 17.46742676 66.0168457 17.67602539 C68.88265807 18.5889299 70.65375612 19.21625612 72.8125 21.375 C73.3727458 24.38632117 73.40376391 26.42723874 71.75 29.078125 C68.4405484 33.0710503 64.59976602 36.45793914 60.64453125 39.796875 C58.95059049 41.25604785 57.37085516 42.77322318 55.8125 44.375 C49.9375 42.5 49.9375 42.5 48.8125 41.375 C42.58476444 40.59653305 39.12323444 41.70538588 34.0625 45.38671875 C29.11149461 49.76182594 23.1133296 55.57057432 22.6796875 62.49609375 C22.68355469 63.64271484 22.68355469 63.64271484 22.6875 64.8125 C22.68492187 65.57433594 22.68234375 66.33617187 22.6796875 67.12109375 C22.70850481 69.38131926 22.70850481 69.38131926 23.53515625 71.421875 C23.8125 73.375 23.8125 73.375 22.44140625 75.26953125 C21.75949219 75.90246094 21.07757813 76.53539062 20.375 77.1875 C19.63636719 77.88101563 18.89773438 78.57453125 18.13671875 79.2890625 C17.36972656 79.97742188 16.60273438 80.66578125 15.8125 81.375 C15.11769531 82.00148438 14.42289062 82.62796875 13.70703125 83.2734375 C12.37838414 84.4504595 11.03741512 85.61374156 9.68359375 86.76171875 C8.49443731 87.78702483 7.33564549 88.84951125 6.22265625 89.95703125 C4.75 91.375 4.75 91.375 1.8125 93.375 C-2.0625 93.1875 -2.0625 93.1875 -5.1875 92.375 C-7.3317934 86.3998698 -8.90372942 80.53027098 -10.01953125 74.28515625 C-10.17681198 73.43474762 -10.33409271 72.58433899 -10.49613953 71.7081604 C-11.00396875 68.9524265 -11.50232788 66.19508474 -12 63.4375 C-12.34987183 61.52247128 -12.70013644 59.60751429 -13.05078125 57.69262695 C-13.93506381 52.85209073 -14.81042122 48.00998637 -15.6831665 43.1673584 C-16.16667791 40.49028629 -16.65362648 37.81386784 -17.14208984 35.13769531 C-17.86470826 31.17799337 -18.58170556 27.21732561 -19.2930603 23.25558472 C-19.55397492 21.80489945 -19.81634202 20.3544746 -20.08023071 18.90432739 C-20.444123 16.89939811 -20.80036439 14.89308473 -21.15625 12.88671875 C-21.35669922 11.76740967 -21.55714844 10.64810059 -21.76367188 9.49487305 C-22.83711956 1.59303667 -22.83711956 1.59303667 -21.1875 -1.5 C-15.02770135 -4.96488674 -6.32820953 -1.66995129 0 0 Z " fill="#030303" transform="translate(328.1875,197.625)"/>
<path d="M0 0 C4.27477502 2.2174252 8.10176386 4.9960399 12 7.8125 C13.1169829 8.59953253 14.23524077 9.38475855 15.35473633 10.16821289 C17.56932381 11.72136051 19.77703938 13.28350275 21.97900391 14.85449219 C25.21166599 17.15032494 28.47516443 19.39492089 31.75463867 21.62304688 C34.24407894 23.31600461 36.7183641 25.0302812 39.19140625 26.74707031 C40.43924395 27.61152807 41.68939223 28.47265674 42.94140625 29.33105469 C44.86273232 30.64981776 46.77585249 31.97975825 48.6875 33.3125 C49.25235107 33.69720459 49.81720215 34.08190918 50.39916992 34.47827148 C55.57569853 38.12182659 59.90421935 42.28737244 61.75 48.5 C61.97171875 49.2115625 62.1934375 49.923125 62.421875 50.65625 C64.31399003 58.32698661 66.219359 68.69075757 63.09375 76.16796875 C61.875 77.6875 61.875 77.6875 59 80 C58.14921875 80.69609375 57.2984375 81.3921875 56.421875 82.109375 C51.93018002 84.59108775 48.42513946 84.64947304 43.375 84.5625 C42.48925293 84.55226807 41.60350586 84.54203613 40.69091797 84.53149414 C33.01078353 84.284087 25.1849285 83.22747527 19.53515625 77.52026367 C15.90918916 73.41033199 12.7967107 68.98476217 9.75 64.4375 C8.78360134 63.01361022 7.81613381 61.59044536 6.84765625 60.16796875 C6.36828613 59.46333496 5.88891602 58.75870117 5.39501953 58.03271484 C3.36588871 55.07602195 1.28099332 52.16129787 -0.8125 49.25 C-1.619826 48.11851408 -2.4271163 46.98700268 -3.234375 45.85546875 C-4.74040725 43.74826545 -6.25610611 41.64915146 -7.78320312 39.55712891 C-9.7214779 36.9006277 -11.64250381 34.23223217 -13.5625 31.5625 C-14.18294189 30.72170898 -14.80338379 29.88091797 -15.44262695 29.01464844 C-18.81576881 24.29234402 -20.99263639 20.88352297 -21 15 C-17.30010967 6.36692256 -10.18647628 -2.14782419 0 0 Z " fill="#3C3C38" transform="translate(377,245)"/>
<path d="M0 0 C0.99 0.495 0.99 0.495 2 1 C7.36498971 17.41489972 6.4311608 36.52879272 2 53 C1.81775879 53.68400879 1.63551758 54.36801758 1.44775391 55.07275391 C-7.4256074 87.94941006 -25.45491013 114.97481476 -44.8671875 142.50390625 C-47.68115314 146.50355498 -50.31871034 150.58204286 -52.875 154.75 C-56.55913346 160.70677617 -60.30182425 166.61954554 -64.13232422 172.48339844 C-65.93014195 175.25375154 -67.6040418 178.00450637 -69 181 C-70.00359934 177.78615357 -69.9828892 175.28791888 -69.58203125 171.95703125 C-69.46432373 170.97412109 -69.34661621 169.99121094 -69.2253418 168.97851562 C-69.089104 167.93373047 -68.95286621 166.88894531 -68.8125 165.8125 C-68.67303955 164.73548828 -68.5335791 163.65847656 -68.38989258 162.54882812 C-66.3638898 147.60469344 -62.70741951 133.94067574 -57 120 C-56.74911621 119.36803711 -56.49823242 118.73607422 -56.23974609 118.08496094 C-49.75947738 101.82386222 -40.54617591 87.00253433 -31.3125 72.1875 C-17.20881898 49.55838195 -4.947244 26.46574433 0 0 Z " fill="#3C3C38" transform="translate(711,537)"/>
<path d="M0 0 C2.74826877 2.37359331 3.77367178 4.52937677 4.9375 7.9453125 C5.27394531 8.93160645 5.61039063 9.91790039 5.95703125 10.93408203 C6.30121094 11.98708496 6.64539063 13.04008789 7 14.125 C7.35449219 15.20507324 7.70898438 16.28514648 8.07421875 17.39794922 C10.89450196 26.22706073 12.93832165 34.80191943 14 44 C14.21785156 45.23105469 14.43570313 46.46210937 14.66015625 47.73046875 C15.1546348 52.13276804 15.57844409 55.91300901 12.77392578 59.62109375 C9.44243307 63.05220617 5.66482709 65.86348041 1.79931641 68.66113281 C-0.68437792 70.50924403 -2.92623666 72.57601339 -5.1875 74.6875 C-19.23909113 87.41303038 -19.23909113 87.41303038 -24 89 C-30.02421832 49.89636855 -30.02421832 49.89636855 -21 34 C-20.53803223 33.17902832 -20.07606445 32.35805664 -19.60009766 31.51220703 C-4.02679473 4.02679473 -4.02679473 4.02679473 0 0 Z " fill="#3B3C38" transform="translate(702,735)"/>
<path d="M0 0 C3.98375283 7.96750566 0.91915614 21.95741168 -1.484375 29.9296875 C-5.97027365 42.55970357 -12.44712077 54.44039162 -19.3737793 65.8737793 C-23.69611816 73.0336972 -27.35358315 80.47979158 -31 88 C-31.99728538 90.00135501 -32.99631846 92.00184501 -34 94 C-36.83932152 91.16067848 -37.17735713 87.86981898 -38 84.0625 C-38.26055176 82.86391357 -38.26055176 82.86391357 -38.52636719 81.64111328 C-45.94000913 45.97078539 -45.94000913 45.97078539 -40.2734375 35.9453125 C-39.14808594 34.48738281 -39.14808594 34.48738281 -38 33 C-37.24203125 31.97261719 -36.4840625 30.94523437 -35.703125 29.88671875 C-12.05525013 -1.14811906 -12.05525013 -1.14811906 0 0 Z " fill="#3A3A36" transform="translate(675,436)"/>
<path d="M0 0 C6.01653942 2.74518909 10.13721612 7.16352737 12.6796875 13.3125 C13.4606689 19.93562802 13.03432954 25.52863441 9.6796875 31.3125 C5.89818026 35.82930031 1.42335506 39.64471065 -4.48828125 40.69921875 C-10.19361494 40.98399444 -14.68496339 39.64995136 -19.3203125 36.3125 C-23.79247537 32.12790415 -26.86882051 27.87193688 -27.65625 21.6640625 C-27.7482799 15.24037536 -27.24042066 11.47053705 -23.3203125 6.3125 C-16.60272701 -0.42304694 -9.3203043 -2.76157164 0 0 Z " fill="#3D3E39" transform="translate(421.3203125,282.6875)"/>
<path d="M0 0 C0.99 0.33 1.98 0.66 3 1 C3 61.72 3 122.44 3 185 C29.73 185 56.46 185 84 185 C84 185.33 84 185.66 84 186 C56.28 186 28.56 186 0 186 C-0.29107747 139.93811 -0.29107747 139.93811 -0.40429688 120.69140625 C-0.48263584 107.38230415 -0.56204369 94.0732143 -0.64819336 80.76416016 C-0.7109204 71.07287414 -0.77012638 61.38157421 -0.82505554 51.69024074 C-0.85428011 46.55597643 -0.88530079 41.4217368 -0.92053413 36.28750992 C-0.95360905 31.45971833 -0.98199299 26.63192238 -1.00670624 21.80408096 C-1.01663873 20.02787208 -1.028317 18.25167201 -1.04183006 16.47548676 C-1.0599594 14.05894356 -1.07192861 11.6424477 -1.08229065 9.2258606 C-1.08909444 8.51575179 -1.09589823 7.80564299 -1.10290819 7.07401574 C-1.11412121 2.22824242 -1.11412121 2.22824242 0 0 Z " fill="#31312D" transform="translate(629,207)"/>
<path d="M0 0 C6.01653942 2.74518909 10.13721612 7.16352737 12.6796875 13.3125 C13.4606689 19.93562802 13.03432954 25.52863441 9.6796875 31.3125 C5.89818026 35.82930031 1.42335506 39.64471065 -4.48828125 40.69921875 C-10.19361494 40.98399444 -14.68496339 39.64995136 -19.3203125 36.3125 C-23.79247537 32.12790415 -26.86882051 27.87193688 -27.65625 21.6640625 C-27.7482799 15.24037536 -27.24042066 11.47053705 -23.3203125 6.3125 C-16.60272701 -0.42304694 -9.3203043 -2.76157164 0 0 Z M-20.6953125 10.9375 C-22.89734181 15.51094549 -23.12496406 19.32203476 -22.3203125 24.3125 C-20.78778093 27.73710322 -20.78778093 27.73710322 -18.3203125 30.3125 C-17.6603125 31.09625 -17.0003125 31.88 -16.3203125 32.6875 C-11.4695583 35.31499186 -6.6961911 35.26536737 -1.3203125 34.3125 C3.00105013 32.00280618 5.85421534 28.85927788 7.6796875 24.3125 C8.38825842 19.31954678 8.23121441 15.39585642 5.9296875 10.875 C2.58757086 7.0687005 -0.19030199 4.67617741 -5.37109375 4.07421875 C-12.39036614 3.84387993 -15.9126789 5.65143129 -20.6953125 10.9375 Z " fill="#F2F2EF" transform="translate(421.3203125,282.6875)"/>
<path d="M0 0 C3.11886578 1.69095133 5.39018854 3.78037709 7 7 C7.51512617 11.09157355 7.94367269 15.23589546 5.953125 18.95703125 C3.55501226 21.85592636 1.60351712 23.79811835 -2.171875 24.2734375 C-9.99106636 24.58146625 -9.99106636 24.58146625 -13.5 21.75 C-16.83767584 18.07855657 -17.86239577 16.51364648 -18.3125 11.5625 C-17.88777978 6.72068945 -16.55898314 4.37001549 -12.9375 1.1875 C-8.59576638 -0.56766891 -4.61229552 -0.81046726 0 0 Z " fill="#F9F8F8" transform="translate(350,223)"/>
<path d="M0 0 C2.07776754 1.69197516 2.92301562 2.59704571 3.43359375 5.26953125 C3.4424613 11.04230509 2.96751707 14.49633197 -1 19 C-1.66 19.78375 -2.32 20.5675 -3 21.375 C-7.84580525 23.99981118 -12.62983027 23.9635133 -18 23 C-20.86727075 21.42731638 -23.05783959 19.6396969 -25 17 C-25 16.34 -25 15.68 -25 15 C-24.01 15 -23.02 15 -22 15 C-22 15.66 -22 16.32 -22 17 C-21.505 16.649375 -21.01 16.29875 -20.5 15.9375 C-17.40040677 14.77515254 -15.16637854 15.3816037 -11.96484375 15.90625 C-9.01193203 16.0471444 -7.31746726 14.70402004 -5 13 C-4.34 13 -3.68 13 -3 13 C-3 9.7 -3 6.4 -3 3 C-2.01 2.67 -1.02 2.34 0 2 C0 1.34 0 0.68 0 0 Z " fill="#363631" transform="translate(426,294)"/>
<path d="M0 0 C2.75 1.375 2.75 1.375 5.75 3.375 C6.51380712 6.77364563 6.4308033 9.96549316 5.75 13.375 C3.0625 16.0625 3.0625 16.0625 -0.25 17.375 C-2.8125 17.3125 -2.8125 17.3125 -5.25 16.375 C-6.178125 16.065625 -7.10625 15.75625 -8.0625 15.4375 C-10.25 13.375 -10.25 13.375 -10.5625 10.953125 C-10.5625 8.40869115 -10.46401169 5.90984953 -10.25 3.375 C-4.1212522 -0.7925485 -4.1212522 -0.7925485 0 0 Z " fill="#FAFAF8" transform="translate(416.25,293.625)"/>
<path d="M0 0 C0.99 0 1.98 0 3 0 C3 33 3 66 3 100 C1.515 100.495 1.515 100.495 0 101 C0 67.67 0 34.34 0 0 Z " fill="#33342E" transform="translate(480,268)"/>
<path d="M0 0 C1.22589844 0.15275391 1.22589844 0.15275391 2.4765625 0.30859375 C3.41628906 0.43427734 3.41628906 0.43427734 4.375 0.5625 C4.375 0.8925 4.375 1.2225 4.375 1.5625 C1.735 1.5625 -0.905 1.5625 -3.625 1.5625 C-3.295 17.7325 -2.965 33.9025 -2.625 50.5625 C-1.965 50.5625 -1.305 50.5625 -0.625 50.5625 C-1.23968882 54.55797736 -3.27959376 57.33756642 -5.625 60.5625 C-5.955 60.5625 -6.285 60.5625 -6.625 60.5625 C-6.625 40.7625 -6.625 20.9625 -6.625 0.5625 C-4.10446405 -0.69776798 -2.7707902 -0.35624445 0 0 Z " fill="#31312D" transform="translate(635.625,406.4375)"/>
<path d="M0 0 C0.66 0 1.32 0 2 0 C2.33 0.99 2.66 1.98 3 3 C2.34 3 1.68 3 1 3 C1.12375 3.78375 1.2475 4.5675 1.375 5.375 C0.89597488 10.00557617 -1.00132412 12.77016929 -3.4921875 16.6328125 C-4.81561917 18.71053165 -5.9449444 20.77721296 -7 23 C-8.4049404 19.10939581 -7.69513239 15.76907638 -7.0625 11.75 C-6.86785156 10.48671875 -6.67320312 9.2234375 -6.47265625 7.921875 C-6.23869141 6.47554687 -6.23869141 6.47554687 -6 5 C-5.34 5.66 -4.68 6.32 -4 7 C-2.68 4.69 -1.36 2.38 0 0 Z " fill="#34342E" transform="translate(649,695)"/>
<path d="M0 0 C1.32 0 2.64 0 4 0 C5.65497356 3.30994713 5.10084335 6.99123 5.0625 10.625 C5.05798828 11.42679687 5.05347656 12.22859375 5.04882812 13.0546875 C5.03703168 15.03649006 5.01909605 17.01825433 5 19 C3.68 19 2.36 19 1 19 C0.67 12.73 0.34 6.46 0 0 Z " fill="#292924" transform="translate(671,436)"/>
<path d="M0 0 C2 2 2 2 2.22705078 4.06298828 C2.21657715 4.89040527 2.20610352 5.71782227 2.1953125 6.5703125 C2.18886719 7.46621094 2.18242188 8.36210938 2.17578125 9.28515625 C2.15902344 10.22230469 2.14226563 11.15945313 2.125 12.125 C2.11597656 13.06988281 2.10695313 14.01476562 2.09765625 14.98828125 C2.07404522 17.32577292 2.04111516 19.66276123 2 22 C0.68 22 -0.64 22 -2 22 C-2 15.73 -2 9.46 -2 3 C-1.34 3 -0.68 3 0 3 C0 2.01 0 1.02 0 0 Z " fill="#444441" transform="translate(630,772)"/>
<path d="M0 0 C1.65 0.33 3.3 0.66 5 1 C5.67090715 8.24579719 3.58125682 12.75838097 0 19 C-0.33 19 -0.66 19 -1 19 C-1.12086218 12.56744599 -0.82351864 6.38226945 0 0 Z " fill="#42423E" transform="translate(638,568)"/>
<path d="M0 0 C0.99 0.33 1.98 0.66 3 1 C3.02718316 3.85423192 3.04692705 6.70820015 3.0625 9.5625 C3.07087891 10.36236328 3.07925781 11.16222656 3.08789062 11.98632812 C3.10742247 16.77163104 2.80437018 21.28145051 2 26 C-0.23413013 22.64880481 -0.23847762 21.5822245 -0.1953125 17.67578125 C-0.18886719 16.64775391 -0.18242188 15.61972656 -0.17578125 14.56054688 C-0.15064453 12.95276367 -0.15064453 12.95276367 -0.125 11.3125 C-0.11597656 10.22904297 -0.10695313 9.14558594 -0.09765625 8.02929688 C-0.0740734 5.3526429 -0.04116126 2.67643203 0 0 Z " fill="#42423E" transform="translate(714,417)"/>
<path d="M0 0 C2.96829447 3.3730619 4.06350475 6.62968884 5 11 C4.625 13.4375 4.625 13.4375 4 15 C3.67 13.35 3.34 11.7 3 10 C2.34 10 1.68 10 1 10 C1 13.63 1 17.26 1 21 C0.34 20.67 -0.32 20.34 -1 20 C-1.37890625 17.6015625 -1.37890625 17.6015625 -1.5625 14.625 C-1.76686657 11.46357425 -1.99377883 9.01866352 -3 6 C-1.5625 2.8125 -1.5625 2.8125 0 0 Z " fill="#474641" transform="translate(435,287)"/>
<path d="M0 0 C0.33 0 0.66 0 1 0 C1.05784708 4.12494151 1.09354407 8.24977944 1.125 12.375 C1.15013672 14.1384375 1.15013672 14.1384375 1.17578125 15.9375 C1.18222656 17.05898438 1.18867187 18.18046875 1.1953125 19.3359375 C1.20578613 20.37282715 1.21625977 21.4097168 1.22705078 22.47802734 C1 25 1 25 -1 27 C-2.19287411 23.12315913 -3 20.08378077 -3 16 C-2.34 16 -1.68 16 -1 16 C-0.67 10.72 -0.34 5.44 0 0 Z " fill="#32322E" transform="translate(639,495)"/>
<path d="M0 0 C7.68897931 0.51405694 15.34855794 1.0765501 23 2 C21.68 2.33 20.36 2.66 19 3 C18.67 4.32 18.34 5.64 18 7 C17.071875 6.566875 16.14375 6.13375 15.1875 5.6875 C10.28999728 3.57129512 5.15844128 2.3152626 0 1 C0 0.67 0 0.34 0 0 Z " fill="#4E4E4B" transform="translate(386,206)"/>
<path d="M0 0 C0.66 0 1.32 0 2 0 C2.02696365 1.79158489 2.04637917 3.58328473 2.0625 5.375 C2.07410156 6.37273438 2.08570313 7.37046875 2.09765625 8.3984375 C2 11 2 11 1 13 C2.32 13 3.64 13 5 13 C5 13.66 5 14.32 5 15 C3.35 15.33 1.7 15.66 0 16 C-0.84634488 10.92193071 -1.17765417 6.15197086 -1 1 C-0.67 0.67 -0.34 0.34 0 0 Z " fill="#30302E" transform="translate(678,803)"/>
<path d="M0 0 C2.125 0.9375 2.125 0.9375 4 2 C3 5 3 5 1 6 C0.53248212 8.35599235 0.53248212 8.35599235 0.375 11.0625 C0.30023438 11.98160156 0.22546875 12.90070313 0.1484375 13.84765625 C0.09945313 14.55792969 0.05046875 15.26820313 0 16 C-0.33 16 -0.66 16 -1 16 C-1 12.7 -1 9.4 -1 6 C-1.99 5.67 -2.98 5.34 -4 5 C-2.25 1.125 -2.25 1.125 0 0 Z " fill="#454440" transform="translate(423,291)"/>
<path d="M0 0 C0.33 0 0.66 0 1 0 C1.66 2.31 2.32 4.62 3 7 C3.33 7 3.66 7 4 7 C3.25 14.625 3.25 14.625 1 18 C-0.2039337 14.24600202 -0.09877617 10.66782588 -0.0625 6.75 C-0.05347656 5.48671875 -0.04445313 4.2234375 -0.03515625 2.921875 C-0.02355469 1.95765625 -0.01195312 0.9934375 0 0 Z " fill="#333430" transform="translate(664,775)"/>
<path d="M0 0 C0.33 0 0.66 0 1 0 C1.20413361 5.73842251 1.27141454 10.60539047 -1 16 C-1.33 16 -1.66 16 -2 16 C-2.05384521 13.70858714 -2.09272087 11.41681812 -2.125 9.125 C-2.14820313 7.84882812 -2.17140625 6.57265625 -2.1953125 5.2578125 C-2 2 -2 2 0 0 Z " fill="#33342F" transform="translate(714,776)"/>
<path d="M0 0 C0.99 0.495 0.99 0.495 2 1 C2.02708567 2.60407328 2.04643483 4.2082785 2.0625 5.8125 C2.07410156 6.70582031 2.08570313 7.59914063 2.09765625 8.51953125 C2 11 2 11 1 14 C1.66 14 2.32 14 3 14 C3 15.65 3 17.3 3 19 C2.34 19.33 1.68 19.66 1 20 C0.09761253 17.29283758 -0.11851302 15.76223232 -0.09765625 12.98828125 C-0.09443359 12.23095703 -0.09121094 11.47363281 -0.08789062 10.69335938 C-0.07951172 9.90767578 -0.07113281 9.12199219 -0.0625 8.3125 C-0.05798828 7.51521484 -0.05347656 6.71792969 -0.04882812 5.89648438 C-0.0370585 3.93095743 -0.01912348 1.96546915 0 0 Z " fill="#34352E" transform="translate(704,679)"/>
<path d="M0 0 C0.66 0 1.32 0 2 0 C2.38909985 1.45463481 2.76088029 2.91391207 3.125 4.375 C3.43824219 5.59316406 3.43824219 5.59316406 3.7578125 6.8359375 C3.83773437 7.55007813 3.91765625 8.26421875 4 9 C3.34 9.66 2.68 10.32 2 11 C1.34 10.67 0.68 10.34 0 10 C-1.11421833 6.35346727 -0.94296589 3.66708957 0 0 Z " fill="#494A46" transform="translate(707,749)"/>
<path d="M0 0 C0 2.64 0 5.28 0 8 C-0.99 8 -1.98 8 -3 8 C-3.66 6.35 -4.32 4.7 -5 3 C-2.25 0 -2.25 0 0 0 Z " fill="#31322D" transform="translate(704,640)"/>
<path d="M0 0 C3 3.75 3 3.75 3 6 C2.34 6 1.68 6 1 6 C-0.20628008 8.33214148 -1.1654738 10.49642139 -2 13 C-2.66 13 -3.32 13 -4 13 C-3.52343588 11.20763933 -3.04366502 9.41613103 -2.5625 7.625 C-2.29566406 6.62726562 -2.02882813 5.62953125 -1.75390625 4.6015625 C-1 2 -1 2 0 0 Z " fill="#4C4C49" transform="translate(637,606)"/>
<path d="M0 0 C0.66 0 1.32 0 2 0 C2 3.63 2 7.26 2 11 C2.66 11 3.32 11 4 11 C3.67 11.99 3.34 12.98 3 14 C2.01 14 1.02 14 0 14 C0 9.38 0 4.76 0 0 Z " fill="#333331" transform="translate(696,536)"/>
<path d="M0 0 C0.33 0 0.66 0 1 0 C1 5.61 1 11.22 1 17 C-2 14 -2 14 -2.109375 11.40625 C-1.93148437 9.96765625 -1.93148437 9.96765625 -1.75 8.5 C-1.64171875 7.5409375 -1.5334375 6.581875 -1.421875 5.59375 C-1 3 -1 3 0 0 Z " fill="#43433E" transform="translate(675,438)"/>
<path d="M0 0 C2.45811625 3.68717438 2.31118164 5.64345704 2 10 C1.34 10.99 0.68 11.98 0 13 C-0.83796731 8.34462607 -1.0161692 4.62921525 0 0 Z " fill="#49483E" transform="translate(644,690)"/>
<path d="M0 0 C0.33 0 0.66 0 1 0 C1 3.96 1 7.92 1 12 C0.67 10.68 0.34 9.36 0 8 C-0.66 8 -1.32 8 -2 8 C-1.125 1.125 -1.125 1.125 0 0 Z " fill="#353433" transform="translate(710,623)"/>
<path d="M0 0 C0.33 1.32 0.66 2.64 1 4 C-0.9375 6.25 -0.9375 6.25 -3 8 C-3.99 7.67 -4.98 7.34 -6 7 C-4.02 4.69 -2.04 2.38 0 0 Z " fill="#454641" transform="translate(405,230)"/>
<path d="M0 0 C0.66 0 1.32 0 2 0 C0.52307692 6.52307692 0.52307692 6.52307692 -2.125 8.9375 C-2.74375 9.288125 -3.3625 9.63875 -4 10 C-2.8905928 6.51329166 -1.73662334 3.22515763 0 0 Z " fill="#4C4D49" transform="translate(645,727)"/>
<path d="M0 0 C0.66 0.33 1.32 0.66 2 1 C2 3.31 2 5.62 2 8 C0.02 8.99 0.02 8.99 -2 10 C-1.34 6.7 -0.68 3.4 0 0 Z " fill="#525251" transform="translate(711,537)"/>
<path d="M0 0 C0.66 0.33 1.32 0.66 2 1 C1.67 2.32 1.34 3.64 1 5 C0.01 5 -0.98 5 -2 5 C-2.33 5.99 -2.66 6.98 -3 8 C-3.66 7.67 -4.32 7.34 -5 7 C-3.35 4.69 -1.7 2.38 0 0 Z " fill="#3F3F3A" transform="translate(702,735)"/>
<path d="M0 0 C1.32 0 2.64 0 4 0 C4 1.98 4 3.96 4 6 C3.67 5.34 3.34 4.68 3 4 C2.01 4.33 1.02 4.66 0 5 C0 3.33333333 0 1.66666667 0 0 Z " fill="#3F403B" transform="translate(713,402)"/>
<path d="M0 0 C1.65 0 3.3 0 5 0 C3.63016497 3.16115776 3.0109362 3.9927092 0 6 C0 4.02 0 2.04 0 0 Z " fill="#45453F" transform="translate(691,808)"/>
<path d="M0 0 C0.66 0.33 1.32 0.66 2 1 C1.625 3.4375 1.625 3.4375 1 6 C0.01 6.495 0.01 6.495 -1 7 C-3 4 -3 4 -3 1 C-2.01 0.67 -1.02 0.34 0 0 Z " fill="#2B2D23" transform="translate(646,704)"/>
<path d="M0 0 C0.99 0.33 1.98 0.66 3 1 C3 2.98 3 4.96 3 7 C1.68 6.01 0.36 5.02 -1 4 C-0.67 2.68 -0.34 1.36 0 0 Z " fill="#33342F" transform="translate(381,296)"/>
<path d="M0 0 C0.99 0.33 1.98 0.66 3 1 C2.67 2.98 2.34 4.96 2 7 C1.01 6.34 0.02 5.68 -1 5 C-0.67 3.35 -0.34 1.7 0 0 Z " fill="#33342F" transform="translate(365,272)"/>
<path d="M0 0 C0.75 1.6875 0.75 1.6875 1 4 C-0.9375 6.75 -0.9375 6.75 -3 9 C-3 6.69 -3 4.38 -3 2 C-2.34 2 -1.68 2 -1 2 C-0.67 1.34 -0.34 0.68 0 0 Z " fill="#32332F" transform="translate(667,801)"/>
<path d="M0 0 C0.33 0.66 0.66 1.32 1 2 C1.99 2 2.98 2 4 2 C3.67 3.65 3.34 5.3 3 7 C2.01 7 1.02 7 0 7 C0 4.69 0 2.38 0 0 Z " fill="#30302A" transform="translate(704,603)"/>
<path d="M0 0 C0.33 0 0.66 0 1 0 C1.33 2.64 1.66 5.28 2 8 C1.01 8 0.02 8 -1 8 C-1.04241723 5.66705225 -1.04092937 3.33297433 -1 1 C-0.67 0.67 -0.34 0.34 0 0 Z " fill="#30312C" transform="translate(689,568)"/>
<path d="M0 0 C0 3 0 3 -1.3125 4.38671875 C-2.875 5.59114583 -4.4375 6.79557292 -6 8 C-6.66 7.67 -7.32 7.34 -8 7 C-5.36 4.69 -2.72 2.38 0 0 Z " fill="#494944" transform="translate(369,245)"/>
<path d="M0 0 C-0.33 2.31 -0.66 4.62 -1 7 C-1.66 6.67 -2.32 6.34 -3 6 C-3.625 3.4375 -3.625 3.4375 -4 1 C-2 0 -2 0 0 0 Z " fill="#53534D" transform="translate(639,679)"/>
<path d="M0 0 C0.99 0 1.98 0 3 0 C2.67 1.98 2.34 3.96 2 6 C0.68 6.33 -0.64 6.66 -2 7 C-1.34 4.69 -0.68 2.38 0 0 Z " fill="#41413D" transform="translate(652,522)"/>
<path d="M0 0 C0.33 0 0.66 0 1 0 C1.25 2.25 1.25 2.25 1 5 C-1 7.3125 -1 7.3125 -3 9 C-3.66 8.67 -4.32 8.34 -5 8 C-4.19185349 6.66402348 -3.37836819 5.331275 -2.5625 4 C-2.11003906 3.2575 -1.65757812 2.515 -1.19140625 1.75 C-0.79824219 1.1725 -0.40507813 0.595 0 0 Z " fill="#4E4F4A" transform="translate(693,513)"/>
<path d="M0 0 C2.475 0.495 2.475 0.495 5 1 C3.68 2.32 2.36 3.64 1 5 C0.67 3.35 0.34 1.7 0 0 Z " fill="#474843" transform="translate(698,802)"/>
<path d="M0 0 C0.66 0 1.32 0 2 0 C2 1.65 2 3.3 2 5 C2.66 5.33 3.32 5.66 4 6 C3.34 6 2.68 6 2 6 C1.67 6.66 1.34 7.32 1 8 C0 7 0 7 -0.0625 3.4375 C-0.041875 2.303125 -0.02125 1.16875 0 0 Z " fill="#30312B" transform="translate(696,712)"/>
<path d="M0 0 C0 0.33 0 0.66 0 1 C-4.455 1.495 -4.455 1.495 -9 2 C-8.67 1.01 -8.34 0.02 -8 -1 C-4.37673261 -2.2077558 -3.35853631 -1.54311128 0 0 Z " fill="#51514A" transform="translate(674,427)"/>
</svg>
